<?xml version="1.0" standalone="no"?>
<!DOCTYPE svg PUBLIC "-//W3C//DTD SVG 20010904//EN"
 "http://www.w3.org/TR/2001/REC-SVG-20010904/DTD/svg10.dtd">
<svg version="1.0" xmlns="http://www.w3.org/2000/svg"
 width="700.000000pt" height="700.000000pt" viewBox="0 0 700.000000 700.000000"
 preserveAspectRatio="xMidYMid meet">
<metadata>
Created by potrace 1.11, written by Peter Selinger 2001-2013
</metadata>
<g transform="translate(0.000000,700.000000) scale(0.100000,-0.100000)"
fill="#000000" stroke="none">
<path d="M3298 6995 c-2 -1 -41 -5 -88 -9 -100 -7 -225 -22 -295 -36 -27 -5
-61 -12 -75 -14 -198 -36 -503 -126 -657 -193 -21 -9 -40 -17 -43 -18 -61 -14
-379 -183 -550 -293 -80 -52 -319 -227 -330 -243 -3 -3 -25 -23 -50 -44 -84
-69 -229 -214 -365 -365 -93 -103 -287 -374 -355 -495 -153 -272 -219 -414
-301 -652 -33 -96 -82 -266 -94 -321 -2 -9 -8 -37 -14 -62 -11 -49 -13 -63
-35 -195 -34 -204 -40 -302 -40 -570 0 -233 11 -378 39 -545 6 -32 24 -129 29
-155 41 -208 142 -519 227 -703 22 -46 39 -86 39 -88 0 -13 153 -285 213 -379
418 -658 1078 -1177 1814 -1426 103 -35 338 -100 405 -113 13 -2 50 -9 83 -15
33 -6 71 -13 85 -16 14 -3 52 -8 85 -11 33 -3 63 -8 66 -9 15 -10 227 -20 409
-20 188 0 341 8 430 21 144 21 295 48 345 61 33 8 67 16 75 18 100 20 358 107
513 172 122 51 339 160 395 198 20 14 40 25 45 25 4 0 13 5 20 10 7 6 64 45
127 87 246 162 527 410 695 613 21 25 41 47 44 50 17 12 180 233 238 323 252
387 417 793 507 1248 14 70 28 155 32 190 3 35 8 67 10 70 9 17 19 214 18 399
0 188 -6 331 -19 420 -3 19 -7 56 -10 81 -3 25 -7 54 -9 65 -2 10 -11 60 -21
109 -98 525 -337 1054 -671 1480 -43 55 -83 105 -88 112 -343 376 -541 542
-906 761 -299 179 -695 333 -1047 407 -99 20 -246 43 -393 60 -55 7 -526 16
-532 10z m199 -2964 c-2 -350 -7 -654 -11 -676 -10 -59 -13 -77 -20 -105 -3
-14 -8 -38 -11 -54 -8 -55 -67 -221 -108 -306 -140 -294 -362 -519 -669 -678
-129 -67 -339 -143 -437 -158 -20 -3 -39 -8 -44 -11 -4 -2 -31 46 -61 109 -29
62 -62 132 -74 156 l-20 42 46 21 c286 129 518 475 536 800 l2 35 -275 -1
c-152 0 -283 1 -293 3 -15 4 -16 62 -16 731 l0 727 730 0 729 0 -4 -635z
m1750 0 c-2 -350 -7 -652 -11 -671 -4 -19 -8 -46 -11 -60 -72 -479 -385 -893
-837 -1109 -109 -51 -288 -115 -357 -127 -14 -3 -41 -9 -59 -14 l-34 -9 -59
127 c-32 70 -65 139 -74 155 l-14 27 64 31 c273 129 488 450 519 774 l5 51
-282 -1 c-155 0 -288 1 -294 3 -10 3 -13 158 -13 731 l0 727 731 0 730 0 -4
-635z"/>
</g>
</svg>
