<svg version="1" xmlns="http://www.w3.org/2000/svg" width="933.333" height="933.333" viewBox="0 0 700.000000 700.000000"><path d="M137.1 205.7c-11.3 3.8-18.5 12.5-20 23.7-.3 2.8-.6 32.3-.5 65.6v60.5l2.6 5.5c3.3 7.4 6.6 11 13 14.5l5.3 3 33.2.5 33.3.5-15.5 31c-8.6 17-16.3 33.4-17.1 36.4-3.3 11 .3 26.7 8 35.3 9.9 11 25 15.8 38.8 12.3 8.1-2.1 12.9-4.7 18.5-10.3 4.1-4.1 8-11.3 28-51.3 12.7-25.5 24-49.1 25-52.4 1.6-5.5 1.7-11.9 1.7-80 0-73.4 0-74-2.1-78.7-2.8-5.9-9.2-12.4-15.2-15.2-4.5-2.1-5.4-2.1-68.6-2.3-55-.1-64.6.1-68.4 1.4zM427.1 206.2c-6.5 2.5-13.3 9-16.3 15.5-2.1 4.8-2.2 5.5-2.3 68-.2 75.3-.7 71 9.8 81.4 7.7 7.6 9.1 7.9 45.4 7.9 18.7 0 31.3.4 31.3.9s-7.2 15.3-15.9 32.8c-9.9 19.9-16.3 33.8-16.8 36.9-4.2 22.8 13.1 44.9 35.9 45.9 12.9.5 22.5-3.3 31-12.3 3.8-4 9-13.6 27.7-51.3 14.7-29.5 23.7-48.8 24.8-52.9 1.4-5.7 1.6-15.2 1.6-79l.1-72.5-2.6-5.5c-3.1-6.8-8-11.9-14.4-15.1l-4.9-2.4-64.5-.2c-62.5-.1-64.7-.1-69.9 1.9z"/></svg>